<?xml version="1.0" encoding="UTF-8" standalone="no"?>
<!DOCTYPE svg PUBLIC "-//W3C//DTD SVG 1.1//EN"
 "http://www.w3.org/Graphics/SVG/1.1/DTD/svg11.dtd">
<!-- Generated by graphviz version 2.46.0 (20210118.1747)
 -->
<!-- Pages: 1 -->
<svg width="547pt" height="163pt"
 viewBox="0.00 0.00 546.80 162.80" xmlns="http://www.w3.org/2000/svg" xmlns:xlink="http://www.w3.org/1999/xlink">
<g id="graph0" class="graph" transodrm="scale(1 1) rotate(0) translate(4 158.8)">
<polygon fill="white" stroke="transparent" points="-4,4 -4,-158.8 542.8,-158.8 542.8,4 -4,4"/>
<!-- 0 -->
<g id="node1" class="node">
<title>0</title>
<ellipse fill="none" stroke="black" stroke-width="2" cx="18" cy="-105" rx="18" ry="18"/>
<text text-anchor="middle" x="18" y="-100.8" font-family="Times,serif" font-size="14.00">0</text>
</g>
<!-- 1 -->
<g id="node2" class="node">
<title>1</title>
<ellipse fill="none" stroke="black" cx="128.5" cy="-105" rx="18" ry="18"/>
<text text-anchor="middle" x="128.5" y="-100.8" font-family="Times,serif" font-size="14.00">1</text>
</g>
<!-- 0&#45;&gt;1 -->
<g id="edge1" class="edge">
<title>0&#45;&gt;1</title>
<path fill="none" stroke="black" d="M36.43,-105C53.7,-105 80.38,-105 100.41,-105"/>
<polygon fill="black" stroke="black" points="100.47,-108.5 110.47,-105 100.47,-101.5 100.47,-108.5"/>
<text text-anchor="middle" x="73.25" y="-109.2" font-family="Times,serif" font-size="14.00">a:x/5.0</text>
</g>
<!-- 2 -->
<g id="node3" class="node">
<title>2</title>
<ellipse fill="none" stroke="black" cx="361.23" cy="-89" rx="30.73" ry="30.73"/>
<ellipse fill="none" stroke="black" cx="361.23" cy="-89" rx="34.74" ry="34.74"/>
<text text-anchor="middle" x="361.23" y="-84.8" font-family="Times,serif" font-size="14.00">2/5.0</text>
</g>
<!-- 1&#45;&gt;2 -->
<g id="edge2" class="edge">
<title>1&#45;&gt;2</title>
<path fill="none" stroke="black" d="M146.46,-103.82C181.9,-101.37 264.77,-95.62 316.29,-92.05"/>
<polygon fill="black" stroke="black" points="316.73,-95.52 326.47,-91.34 316.25,-88.54 316.73,-95.52"/>
<text text-anchor="middle" x="231.69" y="-103.2" font-family="Times,serif" font-size="14.00">b:y/3.0</text>
</g>
<!-- 3 -->
<g id="node4" class="node">
<title>3</title>
<ellipse fill="none" stroke="black" cx="504.18" cy="-89" rx="30.73" ry="30.73"/>
<ellipse fill="none" stroke="black" cx="504.18" cy="-89" rx="34.74" ry="34.74"/>
<text text-anchor="middle" x="504.18" y="-84.8" font-family="Times,serif" font-size="14.00">3/5.0</text>
</g>
<!-- 1&#45;&gt;3 -->
<g id="edge3" class="edge">
<title>1&#45;&gt;3</title>
<path fill="none" stroke="black" d="M145.86,-110.08C187.79,-122.39 302.33,-151.43 395.85,-133 419.39,-128.36 444.26,-118.51 464.13,-109.31"/>
<polygon fill="black" stroke="black" points="465.65,-112.46 473.17,-105 462.64,-106.14 465.65,-112.46"/>
<text text-anchor="middle" x="288.97" y="-142.2" font-family="Times,serif" font-size="14.00">c:z/2.0</text>
</g>
<!-- 4 -->
<g id="node5" class="node">
<title>4</title>
<ellipse fill="#c1cdcd" stroke="black" cx="231.69" cy="-51" rx="18" ry="18"/>
<text text-anchor="middle" x="231.69" y="-46.8" font-family="Times,serif" font-size="14.00">1</text>
</g>
<!-- 1&#45;&gt;4 -->
<g id="edge5" class="edge">
<title>1&#45;&gt;4</title>
<path fill="none" stroke="black" d="M141.54,-92.31C147.9,-86.18 156.11,-79.11 164.5,-74.2 176.73,-67.04 191.52,-61.6 204.02,-57.79"/>
<polygon fill="black" stroke="black" points="205.22,-61.08 213.87,-54.97 203.29,-54.35 205.22,-61.08"/>
<text text-anchor="middle" x="179.27" y="-79.2" font-family="Times,serif" font-size="14.00">ϵ/2.0</text>
</g>
<!-- 2&#45;&gt;3 -->
<g id="edge4" class="edge">
<title>2&#45;&gt;3</title>
<path fill="none" stroke="black" d="M395.99,-89C414.94,-89 438.81,-89 459.2,-89"/>
<polygon fill="black" stroke="black" points="459.21,-92.5 469.21,-89 459.21,-85.5 459.21,-92.5"/>
<text text-anchor="middle" x="432.7" y="-93.2" font-family="Times,serif" font-size="14.00">c:z/4.0</text>
</g>
<!-- 4&#45;&gt;2 -->
<g id="edge7" class="edge">
<title>4&#45;&gt;2</title>
<path fill="none" stroke="black" d="M249.1,-55.89C266.47,-61.06 294.57,-69.44 318.17,-76.47"/>
<polygon fill="black" stroke="black" points="317.38,-79.88 327.96,-79.39 319.38,-73.18 317.38,-79.88"/>
<text text-anchor="middle" x="288.97" y="-78.2" font-family="Times,serif" font-size="14.00">b:y/3.0</text>
</g>
<!-- 5 -->
<g id="node6" class="node">
<title>5</title>
<ellipse fill="#c1cdcd" stroke="black" cx="361.23" cy="-18" rx="18" ry="18"/>
<text text-anchor="middle" x="361.23" y="-13.8" font-family="Times,serif" font-size="14.00">2</text>
</g>
<!-- 4&#45;&gt;5 -->
<g id="edge6" class="edge">
<title>4&#45;&gt;5</title>
<path fill="none" stroke="black" d="M247.06,-41.14C253.58,-37.12 261.56,-32.81 269.33,-30.2 290.02,-23.23 314.61,-20.23 333,-18.94"/>
<polygon fill="black" stroke="black" points="333.25,-22.43 343.04,-18.37 332.85,-15.44 333.25,-22.43"/>
<text text-anchor="middle" x="288.97" y="-35.2" font-family="Times,serif" font-size="14.00">ϵ/2.0</text>
</g>
<!-- 5&#45;&gt;3 -->
<g id="edge8" class="edge">
<title>5&#45;&gt;3</title>
<path fill="none" stroke="black" d="M377.58,-25.73C398.12,-36.08 435.26,-54.79 463.85,-69.19"/>
<polygon fill="black" stroke="black" points="462.29,-72.32 472.8,-73.7 465.44,-66.07 462.29,-72.32"/>
<text text-anchor="middle" x="432.7" y="-66.2" font-family="Times,serif" font-size="14.00">c:z/3.0</text>
</g>
</g>
</svg>
