<?xml version="1.0" encoding="UTF-8" standalone="no"?>
<!DOCTYPE svg PUBLIC "-//W3C//DTD SVG 1.1//EN"
 "http://www.w3.org/Graphics/SVG/1.1/DTD/svg11.dtd">
<!-- Generated by graphviz version 2.46.0 (20210118.1747)
 -->
<!-- Pages: 1 -->
<svg width="442pt" height="130pt"
 viewBox="0.00 0.00 441.97 130.24" xmlns="http://www.w3.org/2000/svg" xmlns:xlink="http://www.w3.org/1999/xlink">
<g id="graph0" class="graph" transodrm="scale(1 1) rotate(0) translate(4 126.24)">
<polygon fill="white" stroke="transparent" points="-4,4 -4,-126.24 437.97,-126.24 437.97,4 -4,4"/>
<!-- 0 -->
<g id="node1" class="node">
<title>0</title>
<ellipse fill="none" stroke="black" stroke-width="2" cx="18" cy="-34.62" rx="18" ry="18"/>
<text text-anchor="middle" x="18" y="-30.42" font-family="Times,serif" font-size="14.00">0</text>
</g>
<!-- 1 -->
<g id="node2" class="node">
<title>1</title>
<ellipse fill="none" stroke="black" cx="128.5" cy="-34.62" rx="18" ry="18"/>
<text text-anchor="middle" x="128.5" y="-30.42" font-family="Times,serif" font-size="14.00">1</text>
</g>
<!-- 0&#45;&gt;1 -->
<g id="edge1" class="edge">
<title>0&#45;&gt;1</title>
<path fill="none" stroke="black" d="M36.43,-34.62C53.7,-34.62 80.38,-34.62 100.41,-34.62"/>
<polygon fill="black" stroke="black" points="100.47,-38.12 110.47,-34.62 100.47,-31.12 100.47,-38.12"/>
<text text-anchor="middle" x="73.25" y="-38.82" font-family="Times,serif" font-size="14.00">a:x/5.0</text>
</g>
<!-- 2 -->
<g id="node3" class="node">
<title>2</title>
<ellipse fill="none" stroke="black" cx="256.4" cy="-87.62" rx="30.73" ry="30.73"/>
<ellipse fill="none" stroke="black" cx="256.4" cy="-87.62" rx="34.74" ry="34.74"/>
<text text-anchor="middle" x="256.4" y="-83.42" font-family="Times,serif" font-size="14.00">2/5.0</text>
</g>
<!-- 1&#45;&gt;2 -->
<g id="edge2" class="edge">
<title>1&#45;&gt;2</title>
<path fill="none" stroke="black" d="M145.44,-41.33C162.77,-48.63 191.14,-60.57 214.73,-70.5"/>
<polygon fill="black" stroke="black" points="213.59,-73.82 224.16,-74.47 216.3,-67.37 213.59,-73.82"/>
<text text-anchor="middle" x="184.14" y="-69.82" font-family="Times,serif" font-size="14.00">b:y/3.0</text>
</g>
<!-- 3 -->
<g id="node4" class="node">
<title>3</title>
<ellipse fill="none" stroke="black" cx="399.35" cy="-34.62" rx="30.73" ry="30.73"/>
<ellipse fill="none" stroke="black" cx="399.35" cy="-34.62" rx="34.74" ry="34.74"/>
<text text-anchor="middle" x="399.35" y="-30.42" font-family="Times,serif" font-size="14.00">3/5.0</text>
</g>
<!-- 1&#45;&gt;3 -->
<g id="edge3" class="edge">
<title>1&#45;&gt;3</title>
<path fill="none" stroke="black" d="M146.48,-32.75C164.97,-30.82 195.43,-27.93 221.78,-26.82 252.52,-25.52 260.26,-25.7 291.02,-26.82 311.91,-27.58 335.04,-29.16 354.46,-30.71"/>
<polygon fill="black" stroke="black" points="354.29,-34.21 364.54,-31.53 354.86,-27.23 354.29,-34.21"/>
<text text-anchor="middle" x="256.4" y="-30.82" font-family="Times,serif" font-size="14.00">c:z/2.0</text>
</g>
<!-- 2&#45;&gt;3 -->
<g id="edge4" class="edge">
<title>2&#45;&gt;3</title>
<path fill="none" stroke="black" d="M289.03,-75.73C309.02,-68.21 335.07,-58.41 356.73,-50.27"/>
<polygon fill="black" stroke="black" points="358.2,-53.45 366.33,-46.66 355.74,-46.9 358.2,-53.45"/>
<text text-anchor="middle" x="327.87" y="-70.82" font-family="Times,serif" font-size="14.00">c:z/4.0</text>
</g>
</g>
</svg>
